<svg width="310" height="296" viewBox="0 0 310 296" fill="none" xmlns="http://www.w3.org/2000/svg">
<path d="M155.25 94.4999H294.545C300.377 94.4999 304.669 99.963 303.289 105.63L283.712 186M155.25 94.4999H15.927C10.1032 94.4999 5.81292 99.9472 7.17752 105.609L26.5538 186M155.25 94.4999V289.5M155.25 289.5H219.5M155.25 289.5H90.5M219.5 289.5H251.429C255.579 289.5 259.191 286.662 260.173 282.63L283.712 186M219.5 289.5V72.4999C218.833 51.4999 205.21 6.50005 155.25 6.5C105.29 6.49995 91.3333 48.1666 90.5 72.4999V289.5M90.5 289.5H58.5885C54.4303 289.5 50.8134 286.651 49.8391 282.609L26.5538 186M26.5538 186H283.712" stroke="white" stroke-width="18" stroke-linejoin="round"/>
</svg>
