<svg role="img" aria-hidden="true" focusable="false" viewBox="0 0 41 40" xmlns="http://www.w3.org/2000/svg">
<path fill="#00A3A3" fill-rule="evenodd" d="M20.276 31.853c-4.7 1.706-5.581 2.256-6.34 2.806-.694.502-.877.662-1.115 1.276-.317 1.141.715 2.107 2.005 2.12.52.006.954-.013 1.7-.519 1.743-1.42 12.121-5.053 12.438-5.07.722-.272.933-2.258.21-2.496-.722-.238-1.223-.902-8.898 1.883zM8.832 19.32c-.738.095-1.106.631-1.106 1.608 0 .417 1.114.626 3.344.626 4.313.05 7.097.05 8.352 0 5.063-.202 7.96-.414 8.288-.626.677-.435.915-1.93-.332-1.93-1.248 0-8.105.322-9.059.322H8.832zm19.399-8.91c-8.848-3.53-13.72-5.4-14.614-5.607-1.343-.31-.67-1.983.195-2.355.866-.371 1.132-.234 2.848.414 1.715.648 11.543 4.203 12.792 4.868 1.249.665 2.52.607 1.53 2.045-.659.958-1.576 1.17-2.751.634z">
</path></svg>