<svg role="img" aria-hidden="true" focusable="false" viewBox="0 0 41 40" xmlns="http://www.w3.org/2000/svg">
<path fill="#00A3A3" fill-rule="evenodd" d="M12.47 10.8c8.622-4.002 13.397-6.382 14.325-7.142 1.391-1.14-1.657-2.583-3.224-1.508-1.567 1.075-12.634 6.606-12.951 6.606-.736.233-1.043 1.94-.334 2.216.473.183 1.201.126 2.184-.173zm17.55 11.065c.744-.13 1.116-.737 1.116-1.82.164-.52-.951-.79-3.345-.806-3.246-.065-5.497-.065-6.752 0-5.062.26-7.96.533-8.288.805-.676.56-.925 2.237.323 2.237 1.247 0 8.104-.416 9.059-.416h7.887zm-15.4 6.713c6.105 4.038 9.285 6.206 9.54 6.504.384.446 1.458 1.544.592 1.915-.867.372-1.618.648-3.333 0-1.144-.432-4.4-2.623-9.768-6.574-.582-.721-.46-1.336.364-1.845.825-.509 1.694-.509 2.606 0z">
</path></svg>