<svg role="img" id="calendar-icon" aria-hidden="true" focusable="false" viewBox="0 0 28 28" xmlns="http://www.w3.org/2000/svg" xmlns:xlink="http://www.w3.org/1999/xlink"><defs><path id="tbef6m3gza" d="M0 0h28v28H0z"></path></defs><g fill="none" fill-rule="evenodd"><g><mask id="3mk3bi8t2b" fill="#fff"><use xlink:href="#tbef6m3gza"></use></mask><path d="M23.777 3.466c-.323-.032-.65-.044-.96-.07l-.055-.004c.148-.513.041-1.037.096-1.611.033-.34.255-.804.661-.635.301.127.447.451.494.76.069.458-.133 1.082-.236 1.56m-4.33-.28a95.95 95.95 0 0 0-1.323-.021c-.008-.813-.234-1.919.515-2.118.518-.138.968.166.946.727-.019.47-.083.942-.137 1.411m-4.498-.737c-.1.168-.128.494-.057.695l.002.012-.661-.002-.431-.005c.035-.24.032-.486.017-.736a5.018 5.018 0 0 0-.057-.518c-.02-.117-.192-.557-.152-.646.15-.338.762-.234.98-.078.427.308.43.804.359 1.278m-5.892.627a6.345 6.345 0 0 0-.004-.856c-.02-.378-.041-.828.396-.967.44-.138.514.196.533.556l.068 1.264.001.02-.994-.017M4.31 3.056c-.039-.465-.24-.995-.108-1.407.086-.268.301-.432.567-.511.346-.103.296.033.352.358.026.15.066 1.041.24 1.552-.35.001-.701.003-1.051.008m23.535 18.371c.076-3.402.274-6.872.051-10.269-.15-2.3-.598-6.303-3.016-7.427a2.708 2.708 0 0 0-.583-.186c.221-1.116.563-2.81-.645-3.377-.528-.248-.938.04-1.108.547-.112.33-.168.68-.19 1.026-.02.344.128.96-.072 1.251a.783.783 0 0 0-.124.348 37.535 37.535 0 0 0-2.136-.143h-.05c.168-1.181.41-3.017-.972-3.188-.581-.072-1.036.304-1.228.833-.127.349-.151.723-.153 1.092-.003.365.112.872.02 1.228-.752-.004-1.505-.005-2.257-.006.028-.106.04-.218.032-.328.098-.613.136-1.248-.094-1.835-.193-.493-.617-1.004-1.194-.985-.47.015-.86.364-.98.811-.189.694.445 1.517.142 2.15a.825.825 0 0 0-.058.174c-.891-.01-1.783-.026-2.676-.042v-.029c-.035-.662-.003-1.373-.135-2.024-.09-.44-.343-.866-.844-.838-1.343.074-.905 1.98-1.025 2.794l-.007.063c-.86-.013-1.72-.021-2.58-.022a.866.866 0 0 0-.022-.432c-.039-.107-.078-.22-.18-.272l-.013-.136a17.124 17.124 0 0 0-.077-.588 11.568 11.568 0 0 0-.175-.973c-.12-.5-.383-.676-.9-.477-.469.18-.78.614-.893 1.094-.146.62.08 1.198.105 1.806-.274.005-.548.01-.822.018-1.47.044-1.997.748-2.34 2.118C.217 6.92.315 8.785.265 10.541c-.058 2-.1 4-.1 6.002.002 1.944.192 3.89-.154 5.81-.086.475.365.941.486.27.442-2.45.158-4.98.179-7.459.012-1.384.042-2.767.08-4.15C.8 9.375.71 7.639 1.018 6.026c.25-1.307.646-1.855 1.969-1.927.648-.035 1.307.008 1.956.012l4.89.03c3.088.018 6.176.023 9.264.056 1.4.014 2.793.114 4.185.246 2.034.192 2.9 1.397 3.506 3.284.927 2.883.644 6.003.607 8.983-.017 1.415-.018 2.83-.044 4.244a91.112 91.112 0 0 1-.07 2.392c-.034.764.097 1.821-.373 2.472-.732 1.015-2.354 1.126-3.464 1.108-1.495-.024-2.987-.02-4.483-.004-3.26.034-6.52.06-9.78-.028-1.632-.045-3.358.008-4.975-.237-.738-.112-3.37-1.047-3.244-2.164.053-.471-.41-.951-.486-.27-.244 2.16 2.405 3.335 4.18 3.48 3.491.283 7.016.275 10.516.263 1.746-.006 3.491-.026 5.236-.045 1.531-.017 3.27.252 4.769-.117.979-.24 2.018-.797 2.349-1.808.457-1.397.288-3.125.32-4.569" fill="#00A3A3" mask="url(#3mk3bi8t2b)"></path></g><path d="m8.645 12.546-.254.024c-.17-.014-.264.222-.268.467-.36.33-.741.635-1.137.92l-.38-.36c-.454-.43-.944-1.085-1.58-1.268-.39-.112-.453.854-.136.945.545.157 1.013.703 1.428 1.132-.523.327-1.073.618-1.65.872-.31.137-.217 1.101.137.945a13.105 13.105 0 0 0 2.153-1.2l1.111 1.052c.33.312.493-.626.26-.846-.24-.229-.482-.458-.724-.686.435-.34.849-.707 1.239-1.102.166-.17.197-1.037-.2-.895M15.844 12.378l-1.938 1.554c-.059-.068-.116-.138-.177-.205-.301-.338-.863-1.075-1.455-.807-.323.147-.21 1.059.145.897.262-.118.638.228.935.567-.537.44-1.111.862-1.872.925-.39.032-.362.96 0 .93.889-.074 1.5-.545 2.129-1.046l.243-.196c.336.401.67.801 1.08 1.152.348.297.52-.594.275-.804a7.367 7.367 0 0 1-.785-.804l1.695-1.36c.25-.2.09-1.095-.275-.803M23.232 12.345c-.593.396-1.156.83-1.686 1.306-.185-.211-.37-.422-.56-.627-.232-.251-.668-.76-1.049-.575-.295.142-.203 1.116.131.954.225-.108.701.476.936.772-.48.51-.98 1.085-1.707 1.075-.34-.005-.346.985 0 .99.72.01 1.209-.457 1.686-.946.174-.178.351-.351.531-.52l1.107 1.278c.285.328.455-.618.249-.855-.266-.306-.528-.617-.791-.926.408-.346.833-.671 1.284-.971.279-.186.156-1.146-.13-.955M8.861 19.974c.131-.154.19-1.072-.207-.879-.07.034-.138.073-.206.11a.228.228 0 0 0-.156.091c-.455.279-.86.63-1.257.99-.059-.054-.116-.11-.177-.163-.453-.398-1.048-1.034-1.718-1.082-.358-.026-.386.933 0 .96.458.034.928.43 1.318.803-.648.563-1.338 1.057-2.264 1.193-.389.057-.341 1.011 0 .961 1.211-.178 2.01-.892 2.816-1.615.471.45.903.93 1.302 1.434.149.187.32-.053.369-.172a.699.699 0 0 0-.097-.658 14.49 14.49 0 0 0-.986-1.118c.294-.246.602-.476.942-.67.16-.012.199-.041.321-.185M15.649 19.81c.039-.14.083-.64-.148-.702l-.06-.016c-.136-.036-.214.055-.26.165-.06.035-.165.14-.245.192-.191.124-.38.253-.564.388-.27.197-.529.407-.782.623a14.425 14.425 0 0 0-1.738-1.395c-.273-.187-.409.732-.131.922.458.313.893.652 1.304 1.013-.44.462-.889.935-1.567.947-.345.006-.343.962 0 .956.952-.017 1.417-.743 2.05-1.326l.069-.061c.437.43.847.887 1.225 1.374.253.326.437-.584.25-.825a13.855 13.855 0 0 0-.897-1.04c.258-.204.523-.397.798-.58.286-.19.6-.295.696-.635M22.495 21.84c-.648.411-1.386.125-1.974-.238a3.094 3.094 0 0 1-.716-.58c-.39-.448-.014-.61.416-.736.372-.11.966-.272 1.51-.295.043.102.108.166.193.145.382-.094.646.089.867.38.37.49.21 1.004-.296 1.325m.332-2.557c-.564-.433-1.632-.187-2.26-.04-.569.133-1.169.245-1.407.81-.49 1.164.614 2.212 1.625 2.685 1.207.565 2.476.012 2.71-1.275.093-.507-.08-1.347-.49-1.863a.516.516 0 0 0-.178-.317M1.388 8.875c8.036-.09 16.073-.061 24.108.085.349.006.331-.857.068-.967l-.324-.136c-.105-.044-.187.01-.242.111a821.58 821.58 0 0 0-23.61-.077c-.358.004-.357.988 0 .984M6.461 6.716c.347-.005.344-.9 0-.895-1.33.023-2.65-.05-3.967-.22-.317-.04-.36.849 0 .895 1.317.169 2.637.242 3.967.22M24.383 6.72c.327.025.358-.775 0-.804l-3.966-.315c-.327-.026-.358.774 0 .803l3.966.315" fill="#00A3A3"></path></g></svg>