<svg viewBox="0 0 76 77" xmlns="http://www.w3.org/2000/svg">
<title>
</title><g fill="none" fill-rule="evenodd">
    <path d="m42.516 68.587-.042-7.577c-1.313-.012-2.915-.03-4.127-.036-.21 0-.42-.018-.63-.036-.324-.03-.636-.054-.864 0l-.024.042v9.983l-.252-.03c.012.228.018.45.03.678.018.342-.048.594-.144.78a1.33 1.33 0 0 1 .222-.018c.282 0 .684.036 1.146.084 1.32.12 3.773.354 4.505-.342.096-.09.198-.228.186-.522v-.834c.06-.42.036-.912.012-1.392-.012-.264-.024-.522-.03-.768l.012-.012zM37.855 17.433c1.08.03 2.562.072 3.168-.252.803-.426.797-3.804.797-5.081 0-.456 0-.84.012-1.11l.084-1.602c.054-1.02.114-2.046.156-3.065.036-.888-.552-1.098-2.34-1.266a18.527 18.527 0 0 1-.63-.066l-4.564-.558c.27.432.461 1.008.443 1.344-.24 3.641-.323 6.935-.276 10.072 0 .162 0 .342-.012.522-.03.6-.035 1.014.192 1.212.228.042.9-.06 1.188-.102.24-.036.438-.066.564-.066.33-.012.762 0 1.218.012v.006z"></path>
    <path d="M75.991 41.561c-.012-3.077-.528-7.39-1.05-11.512l-.083-.666c-.15-1.194-.294-2.316-.408-3.293-.078-.648-.528-1.098-1.122-1.128a1.19 1.19 0 0 0-.558.108h-.414c-.294-.258-.66-.366-1.032-.282-1.68.36-3.917.258-6.137-.276L61.54 23l-2.7-2.058a5.035 5.035 0 0 1-.426-.666c-.45-.87-.786-1.853-1.002-2.921l-.144-4.595c.156-1.146.444-2.232.858-3.234.162-.39.132-.93-.078-1.374-.174-.36-.444-.612-.774-.714-4.71-1.415-9.67-1.871-13.174-1.997-.186-1.392-.774-2.34-1.746-2.814-.726-.36-1.817-.414-2.783-.462-.36-.018-.696-.036-.96-.066l-4.391-.546c-.402-.048-.882.198-.966.864-.048.378.036.972.288 1.41a.752.752 0 0 0-.15.054c-.258.126-.402.39-.426.768-.018.318-.042.636-.06.954l-6.707.827.012.282c-.426.186-.696.678-.685 1.302.319 18.538 1.11 37.5 2.43 57.976.03.48.264.906.636 1.176.096.066.198.126.3.161l.012.318a1.185 1.185 0 0 0-.324.732c-.078.744.306 1.68 1.062 1.896 1.374.396 2.874.702 4.566.93l.012.288c.03.564.336 1.062.81 1.302.227.114.467.156.701.12a1.47 1.47 0 0 0-.168.708c0 .773.48 1.607 1.272 1.613.588 0 1.2.036 1.848.072.708.042 1.434.078 2.148.078.713 0 1.41-.042 2.075-.162 1.692-.306 1.974-1.535 2.028-2.693.012-.264.024-.534.03-.798 7.06-.264 12.88-1.638 17.313-4.092.708-.39.618-1.35.39-1.895a8.593 8.593 0 0 1-.678-3.36l.642-3.521a11.207 11.207 0 0 1 2.802-4.242c.888-.846 4.163-1.607 5.741-1.973l.75-.174c.204-.048.402-.09.6-.126.822-.156 1.752-.324 2.388-1.332.6-.948.701-2.304.78-3.39.017-.252.035-.498.06-.713.071-.66.125-1.362.167-2.148l.066-.234-.03-.408c.036-.822.048-1.686.048-2.58l-.012.018zM36.08 17.487c-.294.042-.96.144-1.188.102-.227-.198-.221-.612-.192-1.212.006-.186.018-.36.012-.522-.053-3.137.036-6.437.276-10.072.024-.336-.174-.912-.443-1.344l4.565.558c.204.024.414.048.63.066 1.787.168 2.381.378 2.34 1.266-.043 1.02-.103 2.045-.157 3.065l-.084 1.602c-.012.27-.012.66-.012 1.11 0 1.271 0 4.649-.797 5.08-.6.325-2.082.283-3.168.253-.456-.012-.888-.024-1.218-.012-.12 0-.324.036-.564.066v-.006zm6.455 53.254v.834c.012.294-.096.432-.186.522-.732.696-3.185.468-4.505.342a19.078 19.078 0 0 0-1.146-.084c-.078 0-.15.006-.222.018.096-.186.162-.438.144-.78-.012-.228-.024-.45-.03-.678l.252.03v-9.983l.024-.042c.222-.054.534-.03.864 0 .21.018.426.036.63.036 1.206.006 2.808.024 4.127.036l.042 7.577c0 .252.012.51.03.768.024.474.048.966-.012 1.392l-.012.012zm13.138-29.306c-1.05 1.8-7.972 5.651-11.11 3.822-.846-.498-2.19-1.746-1.002-3.78.438-.744 1.506-1.643 2.778-2.315a6.23 6.23 0 0 1-1.344-1.656c-.78-1.386-1.098-3.06-.468-4.175 1.176-2.082 3.87-1.632 5.393-.768 3.726 2.105 6.575 7.409 5.753 8.872z" fill="#00A3A3" fill-rule="nonzero"></path>
    <path d="M49.925 32.569c-1.53-.864-4.217-1.32-5.393.768-.63 1.115-.312 2.783.468 4.175a6.23 6.23 0 0 0 1.344 1.656c-1.272.666-2.34 1.565-2.778 2.315-1.188 2.034.156 3.288 1.002 3.78 3.132 1.83 10.055-2.022 11.11-3.822.828-1.463-2.021-6.767-5.753-8.872z" fill="#FFF" fill-rule="nonzero"></path>
    <path d="M7.805 41.543c3.336.078 6.671.06 10.007.108 0-2.351 0-4.697-.03-7.03-.798-.037-1.59-.055-2.376-.085-1.805-.066-3.617-.132-5.429-.114-.276 0-.558-.336-.708-.516a3.914 3.914 0 0 1-.642-1.115c-.126-.318-.45-1.368.234-1.374 1.812-.018 3.624.048 5.43.114 1.14.042 2.303.066 3.455.15-.012-.696-.018-1.392-.03-2.088-.03-1.734-.036-3.503-.036-5.28-.942-.011-1.89-.023-2.832-.047-1.853-.048-3.761-.072-5.555-.438-.858-.174-1.458-.84-1.674-1.614-.15-.546.126-1.494.942-1.326 1.8.366 3.702.39 5.556.438 1.187.03 2.375.036 3.563.066 0-2.495-.018-4.985-.108-7.409-.876-.048-1.758-.072-2.622-.108-1.607-.06-3.221-.102-4.829-.162-.774-.03-.966-1.157-1.002-1.661-.036-.474.102-1.686.852-1.656 1.608.06 3.222.096 4.83.162.875.036 1.763.06 2.651.108-.078-2.34-.144-3.732-.81-4.337-1.452-1.32-4.175-.768-5.657-.954-1.692-.21-3.971-.228-5.67-.18-1.331.036-2.92-.642-4.043 2.861-.9 2.826-.833 8.081-.923 12.328C.24 25.568.169 30.77.115 35.97.03 44.02-.071 52.228.085 60.273.24 66.5-.167 71.383 1.446 72.085c1.35.582 4.494.36 5.85.486 1.451.138 4.079.318 5.537.378 1.284.048 2.723.432 3.977-.924.774-.84.552-2.676.486-5.327-.786-.042-1.572-.06-2.346-.09-1.607-.06-3.221-.102-4.829-.162-.774-.03-.966-1.158-1.002-1.662-.036-.474.102-1.686.852-1.656 1.608.06 3.222.096 4.83.162.84.03 1.685.054 2.531.102a558 558 0 0 0 .288-7.895c-3.317-.162-6.665-.24-9.983-.198-.887.012-1.205-3.275-.497-3.281.6-.006 1.205 0 1.805.012 2.088.024 4.176.054 6.263.12.828.024 1.662.054 2.49.102.054-2.466.084-4.932.102-7.403-3.198-.042-6.395-.024-9.587-.102-.773-.018-1.163-1.296-1.235-1.8-.084-.564.048-1.416.833-1.392l-.006-.012z" fill="#00A3A3" fill-rule="nonzero"></path></g>
</svg>