<svg role="img" id="diaper-icon" aria-hidden="true" focusable="false" viewBox="0 0 28 28" xmlns="http://www.w3.org/2000/svg" xmlns:xlink="http://www.w3.org/1999/xlink"><defs><path id="1a65ma1fsa" d="M0 0h28v25H0z"></path></defs><g transform="translate(0 2.8)" fill="none" fill-rule="evenodd"><mask id="2r6zbu58ab" fill="#fff"><use xlink:href="#1a65ma1fsa"></use></mask><path d="M24.285 18.963c-1.677 1.677-3.907 2.54-6.092 3.398.246-.988.352-2.089.89-2.993 1.075-1.81 2.42-3.153 4.173-4.346 1.12-.761 2.526-1.176 3.476-2.048-.173 2.214-.802 4.343-2.447 5.989M22.658 7.098c.03-.24.066-.48.101-.72.065-.443.03-.611.433-.84.267-.153.867-.12 1.179-.137 1.02-.056 1.987.004 2.998-.137.019.614.026 1.227.021 1.84-.294-.022-.588-.034-.882-.058a.195.195 0 0 0-.116.034 49.733 49.733 0 0 0-3.734.018M1.102 12.94c.434.396.997.56 1.595.851 1.5.732 2.813 1.622 3.983 2.818.515.526.93 1.082 1.329 1.698.915 1.413.92 2.657 1.334 4.114-3.954-1.225-8.606-5.058-8.24-9.481M.758 5.474c1.272.056 3.128-.244 4.402.207-.057.504-.101 1.007-.135 1.513-1.468-.01-2.937.01-4.406 0 .002-.582.029-1.167.07-1.748.022.01.042.027.069.028M27.865.865c-.001-.231-.056-.557-.317-.623-1.293-.33-2.852-.137-4.17-.118C20.992.16 18.613.096 16.23.057 10.979-.03 5.73-.048.483.23.035.253.051 1.5.483 1.476c5.248-.277 10.496-.26 15.748-.172 2.202.036 4.405.116 6.608.083 1.384-.02 3.01-.23 4.401.04.017.856.05 1.724.085 2.597-1.4.17-2.936-.116-4.27.3-1.14.355-1.023 2.265-1.09 3.241-.013.17-.021.807.305.79a49.473 49.473 0 0 1 5.079-.002 17.958 17.958 0 0 1-.366 2.86c-.56 1.222-3.305 2.159-4.355 2.906-.612.437-1.234.913-1.774 1.438-1.459 1.419-2.6 3.26-3.322 5.145-.594 1.548.16 2.558-1.78 2.806-1.206.154-2.472.071-3.661-.159-2.242-.433-1.804-.397-2.092-1.908-.614-3.217-2.375-5.8-5.103-7.705-.868-.607-2.072-.878-2.874-1.498-1.195-.924-.646-.699-.997-1.846a9.32 9.32 0 0 1-.356-1.951c1.544.01 3.088-.015 4.632 0 .265.003.312-.457.317-.624.026-.807.134-1.661.228-2.46.026-.22.022-.647-.221-.768-1.326-.652-3.394-.303-4.84-.362.023-.289.046-.575.066-.858.042-.574-.55-1.173-.611-.331C.13 4.549.062 5.936.108 7.349c-.16.268-.143.807.054 1.01.036.504.086 1.016.157 1.542.092.677.015 1.544.243 2.218-.778 5.455 4.062 10.272 9.13 11.65.004.004.004.01.008.014 1.392 1.447 6.259 1.753 7.807.095.022-.002.042.007.066-.003 3.037-1.218 6.224-2.338 8.1-5.153 1.282-1.922 1.66-4.178 1.733-6.432a.775.775 0 0 0 .077-.196l.088-.334a.76.76 0 0 0 .018-.218c.704-3.498.294-7.137.276-10.677" fill="#00A3A3" mask="url(#2r6zbu58ab)"></path></g></svg>