<svg role="img" id="cross-teal" aria-hidden="true" focusable="false" class="icon-adjust icon" xmlns="http://www.w3.org/2000/svg" viewBox="0 0 20 20"><title>Close Modal</title><path fill="#1e647d" fill-rule="evenodd" d="M19.476.159c-.401-.34-1.96-.098-2.35.364l-6.42 7.59c-1.973-2.549-3.758-4.795-5.45-6.858-.24-.29-.702-.285-1.05-.227-.481.08-1.26.365-1.434.828-.069.18-.037.366.09.52 1.987 2.423 3.997 4.96 6.14 7.75-1.38 1.608-2.783 2.93-4.142 4.21-1.414 1.332-2.876 2.71-4.319 4.415-.165.196-.155.36-.118.465.057.161.21.265.45.308.091.016.2.025.32.025.58 0 1.413-.19 1.7-.528 1.247-1.474 2.52-2.631 3.751-3.75 1.175-1.067 2.386-2.168 3.587-3.551.994 1.277 1.984 2.32 2.943 3.329 1.204 1.268 2.342 2.466 3.484 4.088.155.22.461.318.894.277.52-.047 1.353-.328 1.575-.807.088-.19.07-.389-.052-.56-1.287-1.828-2.622-3.26-3.913-4.646-1.052-1.13-2.139-2.296-3.224-3.695l7.54-8.913c.23-.272.142-.512-.002-.634"></path></svg>