<svg class="profile-cta__icon" viewBox="0 0 10 15" xmlns="http://www.w3.org/2000/svg"><title>profile icon</title><path d="M8.903 8.349C8.654 7.669 8.357 7.195 7.67 7c-.5-.141-1.83.038-1.398-.356.294-.211 1.027-.454 1.206-.768.406-.712.444-1.581.371-2.374-.072-.793-.214-1.798-.735-2.443C6.504.305 5.575.18 4.66.343c-.805.144-1.546.421-1.986 1.122-.512.816-.512 1.719-.398 2.652.093.757.322 1.73.982 2.217.016.012.307.157.307.31 0 .356-.66.087-1.148.356-.865.476-1.325 1.225-1.543 2.083-.275 1.08-.354 2.114-.354 3.223 0 .216.071.349.16.4.87.916 2.833 1.231 4.05 1.315.826.058 1.8-.015 2.594-.25.422-.124.802-.313 1.196-.5.276-.133.593-.23.768-.492.346-.52.13-1.44.077-2.016-.072-.81-.18-1.645-.462-2.414z" fill="#1E647D" stroke="#1E647D" stroke-width=".3" fill-rule="evenodd"></path></svg>