<svg class="vortex__content-icon" role="img" viewBox="0 0 16 23" xmlns="http://www.w3.org/2000/svg"><title>profile icon</title>
<path d="M7.469 1.036c1.429-.255 2.882-.059 3.833 1.12.813 1.006 1.035 2.576 1.148 3.815.114 1.24.054 2.597-.58 3.71-.279.49-.69.87-1.15 1.2.401.11.819.195 1.187.379 1.04.52 1.802 1.223 2.192 2.285.44 1.202.608 2.506.722 3.772.081.9.42 2.337-.122 3.15-.272.41-.767.562-1.199.768-.615.293-1.21.588-1.869.783-1.24.366-2.762.48-4.052.39-1.902-.131-4.97-.624-6.33-2.055-.137-.08-.249-.287-.249-.624 0-1.733.124-3.35.553-5.036.341-1.34 1.024-2.744 2.396-3.393.507-.24 1.067-.369 1.595-.564-.11-.073-.2-.136-.226-.155-1.03-.762-1.429-2.465-1.574-3.648-.179-1.458-.179-2.87.622-4.144.688-1.095 1.845-1.529 3.103-1.753zm2.762 1.891c-1.228-.82-3.136-.497-4.378.143C4.13 3.96 4.22 6.203 4.76 7.786c.155.453.39 1.083.764 1.412.213.188.512.278.742.444.318.229.52.5.588.892.19 1.1-.593 1.46-1.476 1.77-1.433.502-2.52.988-2.958 2.538-.414 1.467-.564 2.864-.591 4.355 1.212 1.135 3.817 1.533 5.368 1.689 2.213.221 4.306-.281 6.274-1.227.543-.261.53-.485.529-1.054 0-.588-.066-1.176-.137-1.759-.134-1.092-.471-2.537-1.21-3.424-.906-1.088-2.482-.841-3.43-1.773-.42.126-.86.153-1.304-.002-.457-.16-.348-1.601.198-1.41.613.214 1.271-.071 1.828-.415.881-.58 1.57-1.244 1.68-2.433.128-1.402-.13-3.617-1.394-4.462z" 
fill="#1e647d" stroke="#1e647d" stroke-width=".3" fill-rule="evenodd">
</path>
</svg>