<svg viewBox="0 0 24 24" xmlns="http://www.w3.org/2000/svg" aria-hidden="true"><title>Search</title>
    <path d="M8.518.071c.94-.064 1.904.063 2.81.32.908.256 1.786.65 2.597 1.133.81.482 1.607 1.056 2.259 1.742a5.499 5.499 0 0 1 1.378 2.483c.214.881.23 1.8.116 2.697a14.36 14.36 0 0 1-.638 2.74 10.07 10.07 0 0 1-.841 1.915l.156.148c1.198 1.135 2.374 2.292 3.484 3.514a79.834 79.834 0 0 1 1.545 1.758c.64.747 1.296 1.485 1.91 2.254.374.47.747 1.039.702 1.67-.046.652-.421 1.288-1.071 1.496-.361.116-.724.05-1.06-.105-.274-.127-.506-.343-.742-.528a40.957 40.957 0 0 1-1.15-.934 32.549 32.549 0 0 1-3.231-3.168c-1.17-1.303-2.333-2.605-3.57-3.846l.31.319a7.468 7.468 0 0 1-2.1.732c-.254.047-.51.077-.766.11l-.13.016.047-.007-.044.007-.037.005h-.013.017l.016-.003-.02.003-.018.003a12.838 12.838 0 0 0-.773.137c-.42.085-.836.063-1.261.051-.418-.011-.727-.334-.745-.75-.018-.397.355-.76.745-.75.24.007.48.017.72.013.062-.002.123-.008.184-.011l-.061.004.016-.003.239-.048.24-.044c.216-.036.434-.065.651-.094l.338-.043.025-.004.032-.005.067-.01a6.926 6.926 0 0 0 1.386-.381c.043-.017.085-.037.128-.051l-.018.006.029-.012c.087-.04.173-.08.258-.123l.252-.133a6.569 6.569 0 0 0 .728-.468l.02-.016.026-.021.054-.042c.298-.246.573-.52.818-.82l.057-.07-.008.008-.027.037.01-.012c.026-.032.06-.075.025-.034l-.006.007.04-.055.02-.025a.685.685 0 0 1 .069-.09l-.061.078a6.367 6.367 0 0 0 .612-1.083l.065-.148-.002.003-.005.014.007-.014.016-.039-.014.029.005-.012c.043-.109.085-.218.125-.327l.117-.33c.136-.401.26-.808.365-1.219.105-.412.192-.83.252-1.25l-.003.026a.446.446 0 0 0 .001-.01l.002-.017.001-.007.002-.015V8.37l.001-.008.016-.139.014-.148.012-.148c.014-.205.021-.41.02-.615a6.56 6.56 0 0 0-.033-.606l-.006-.046-.003-.03-.003-.02.003.015.002.019-.003-.03-.004-.033v.014a4.612 4.612 0 0 0-.061-.33 4.976 4.976 0 0 0-.17-.597c-.018-.053-.038-.105-.058-.157v.002c.05.109-.022-.066-.013-.036l.012.033-.06-.128-.064-.13a4.429 4.429 0 0 0-.35-.557l-.012-.017-.01-.012-.002-.004-.025-.03-.048-.058a6.882 6.882 0 0 0-.683-.688 8.708 8.708 0 0 0-.255-.215l-.12-.096.04.032-.007-.005-.015-.01-.03-.025a11.434 11.434 0 0 0-2.23-1.331l-.093-.042.027.012a.412.412 0 0 0-.033-.015l-.008-.003.013.006-.01-.003-.055-.023-.017-.007a9.469 9.469 0 0 0-.896-.31 8.604 8.604 0 0 0-.967-.22l-.15-.024.044.007-.01-.001-.037-.005a7.257 7.257 0 0 0-1.597-.014c-.048.005-.097.014-.146.017l.036-.005-.03.005a6.907 6.907 0 0 0-.307.056l-.305.069a7.307 7.307 0 0 0-1.005.33l-.013.004-.258.126-.272.13a8.704 8.704 0 0 0-1.051.65c-.086.061-.17.125-.254.188l.037-.028-.01.009-.03.022-.113.092a10.059 10.059 0 0 0-1.314 1.309c-.068.081-.13.173-.202.25l-.092.126A9.078 9.078 0 0 0 2 6.573l-.004.008-.007.017-.027.069-.027.069a7.08 7.08 0 0 0-.395 1.478l-.002.005-.001.015-.003.023.002-.024-.003.024a.767.767 0 0 0-.001.014v-.003l-.01.094c-.005.053-.01.106-.013.158l-.01.159c-.01.204-.01.41.001.613.004.069.013.137.017.206l-.004-.041-.007-.043c-.023-.13.014.132.011.084l-.003-.034.008.039c.011.064.025.128.04.191l.05.19c.04.14.088.277.14.412l.045.114-.011-.027.034.077.046.099c.135.287.288.565.454.835.18.29.374.571.58.844l-.012-.015-.019-.024c-.02-.024.014.02.034.046l.011.014-.015-.021.034.042.038.048.155.19a10.421 10.421 0 0 0 1.43 1.416h-.001l-.017-.012c-.053-.04.043.034.07.055l-.021-.018.04.03.089.065.09.064c.239.167.488.32.751.447l.102.047-.02-.01.042.017.085.032c.114.04.23.073.347.099.408.088.606.545.52.922-.092.41-.536.606-.916.524a4.111 4.111 0 0 1-.883-.322c-.612-.29-1.165-.716-1.67-1.165a11.748 11.748 0 0 1-1.527-1.681 9.476 9.476 0 0 1-1.08-1.762c-.288-.621-.505-1.26-.545-1.95-.106-1.826.581-3.665 1.637-5.129C2.702 2.726 4.118 1.477 5.777.76A8.264 8.264 0 0 1 8.517.07zm6.789 14.234a6.547 6.547 0 0 1-.562.53l.042.043c.558.573 1.1 1.16 1.636 1.752l1.605 1.782a31.402 31.402 0 0 0 3.175 3.06c.376.312.759.618 1.145.918l-.02-.015-.009-.006c-.011-.006.13.1.029.02l-.017-.012.004.002.058.042c.045.032.092.062.14.089l-.05-.03.003-.004.002-.005.003-.01.014-.043.002-.012v-.034l-.01-.024-.007-.032.005.017.012.035v-.042c0-.036-.011-.044-.015-.03l-.002.018-.01-.048-.014-.06-.002-.01-.076-.139-.09-.144a3.095 3.095 0 0 0-.087-.123l-.02-.027.027.037.009.013-.007-.01-.062-.076-.012-.015-.238-.282-.495-.585c-1.016-1.2-2.032-2.401-3.106-3.55-1.15-1.231-2.367-2.398-3.595-3.55zm-3.99-3.229-.027.042a8.042 8.042 0 0 0 .042-.063l.03-.044a4.388 4.388 0 0 0 .329-.609l.071-.171-.029.08.015-.04.016-.041-.007.017-.009.02.014-.036c.046-.13.087-.261.122-.394l.05-.2c.023-.105.044-.211.06-.317.009-.05.015-.1.023-.15l-.006.037-.002.017-.004.043c0 .008.012-.088.015-.112l-.003.016-.003.01a5.623 5.623 0 0 0 0-1.1h-.001l.002.011.004.024-.004-.042c-.004-.03-.008-.059-.006-.035l.003.034-.03-.186a5.726 5.726 0 0 0-.038-.204l-.048-.202a5.163 5.163 0 0 0-.137-.448l-.005-.012-.074-.172a4.985 4.985 0 0 0-.087-.183l-.096-.18a4.28 4.28 0 0 0-.164-.268l.001.001c.056.074-.088-.13-.037-.052l.018.026.007.01-.032-.042-.044-.058c-.254-.326-.273-.756 0-1.08.24-.288.748-.306.986 0 .371.474.645.985.858 1.564.691 1.88.336 4.142-.864 5.673-.254.323-.726.262-.987 0-.292-.294-.237-.778 0-1.08l.07-.096.016-.02-.007.012z" 
        fill="white" fill-rule="evenodd">
    </path>
</svg>