<svg aria-hidden="true" class="shop-icon-hover" id="shop-icon-hover-5655" role="img" xmlns="http://www.w3.org/2000/svg" viewBox="0 0 20 20"><g id="Styleguide-5655" stroke="none" stroke-width="1" fill="none" fill-rule="evenodd"><g id="Guide_Behaviour-5655" transform="translate(-2574.000000, -700.000000)"><g id="Group-Copy-4-5655" transform="translate(2356.000000, 611.000000)"><g id="Icon/Bag-5655" transform="translate(220.000000, 89.000000)"><path d="M1.5,5 C1.5,5.5 1,16.5 1,18 C1,19.5 10.0021591,19.2066732 12,19 C13.9978409,18.7933268 14.5,17 15,16.5 C15.5,16 13.5,6 12.5,5 C11.5,4 2.61444116,3.5 2,3.5 C1.38555884,3.5 1.5,4.5 1.5,5 Z" id="Path-2-5655" fill="#EDC3BB"></path><path d="M6.40794079,0.00961252463 C7.49484868,-0.053498244 8.64590132,0.168967215 9.11642763,1.4356905 C9.34613136,2.05434799 9.42218688,2.76078249 9.42341886,3.48304073 C9.53704213,3.47620309 9.65372055,3.46724462 9.77174686,3.45796334 L10.105981,3.43184223 C11.4096379,3.3334164 12.7905508,3.30207863 13.2947612,4.56089351 C13.3708398,4.64631448 13.4506165,4.77840931 13.531992,4.96784987 C14.1829961,6.4833743 14.3383198,8.36791033 14.6940828,10.4097653 C15.0009049,12.1709515 15.2021446,13.8773037 15.7618853,15.5570513 C15.86935,15.8791502 15.5801741,16.7412242 15.3809879,16.9410636 C14.9653321,17.3588173 14.346591,18.2016833 13.9427426,18.6318254 C13.3179755,19.2969413 13.1266035,18.0513402 13.531992,17.6195734 C13.9387494,17.186385 14.2813271,16.6184764 14.6940828,16.1860253 C14.9594257,15.908021 14.6423914,14.7037449 14.3005345,13.4110042 L14.1864277,12.9779634 C14.0350989,12.3992717 13.8911041,11.8214937 13.8033918,11.3181816 C13.7202641,10.8410815 13.6344925,10.3646577 13.5467209,9.88875235 C13.4949382,10.4112238 13.4345221,10.9273334 13.3777195,11.4306093 C13.1008403,13.8865511 12.7610535,16.3238297 13.0813689,18.7936603 C13.1434207,19.2723921 12.6810281,19.8249085 12.2267665,19.8639709 C9.84718895,20.0688317 7.45990838,20.0479984 5.08739184,19.7626256 C3.93836462,19.624171 2.79254698,19.4318971 1.66406103,19.1712638 C0.991120504,19.0160992 0.32203147,18.8891463 0.0903002822,18.1493473 C-0.166465577,17.3303383 0.194290455,16.2355052 0.308337291,15.4275639 C0.476090985,14.239632 0.616884265,13.0475769 0.727079612,11.8524835 C0.954959312,9.38135077 1.10247589,7.35097246 1.08899568,4.86942307 C1.08557214,4.24984952 2.15961657,4.41490715 2.15961657,5.12389026 C2.15961657,9.35643826 1.83523827,12.1942798 1.24510473,16.3943591 C1.15224108,17.0547312 1.21579063,17.2897568 1.8176926,17.5894524 C2.25804605,17.8088531 2.93569394,17.8407541 3.4173439,17.9316827 C4.48891342,18.1335053 5.57011166,18.2834616 6.6558033,18.3811177 C8.69516613,18.5642771 11.6582288,18.6128881 11.6582288,18.3811177 C11.6582288,18.2266041 12.009149,15.0979137 12.2430957,11.8186628 L12.283071,11.2389833 C12.3794972,9.78875089 12.4477992,8.34154207 12.4477992,7.13981832 C12.4477992,6.64205494 12.419127,6.02480295 12.2021598,5.56364926 C11.9103026,4.94277363 11.4881368,4.95948367 10.8903003,4.95883263 C10.6370897,4.95848156 10.0794377,4.92014099 9.35710891,4.86402026 C9.31544383,5.31896988 9.26576554,5.76204828 9.22655921,6.17418224 C9.15708553,6.90559097 8.08438816,7.57411433 8.18879605,6.47508537 C8.23545114,5.98511412 8.3071236,5.38880438 8.33545223,4.78261907 C7.09698613,4.68258263 5.63067902,4.56283556 4.38779353,4.48855602 C4.40025787,4.85574172 4.427667,5.21577163 4.45024342,5.54555391 C4.49484868,6.19582022 3.45136184,7.22091942 3.38307237,6.22219151 C3.34444405,5.65895397 3.31914944,5.04932121 3.33634854,4.43570133 C3.0820508,4.42577955 2.8477519,4.4197171 2.64005962,4.418252 C0.455838048,4.40284404 1.1881883,3.12528556 1.78302921,3.05801137 C2.34586033,2.99431978 2.9079668,2.9868954 3.46980768,3.01244458 C3.54846934,2.54038781 3.67021462,2.08639975 3.847875,1.67213049 C4.37149342,0.451162509 5.27326974,0.0756534361 6.40794079,0.00961252463 Z M6.71623026,1.56303901 C5.74951974,1.45868085 4.88445395,1.45845546 4.54063816,2.66003941 C4.50176422,2.79572164 4.47133122,2.93754066 4.44788462,3.08368591 C5.90598568,3.23113377 7.36204823,3.50690721 8.82611672,3.50744633 L8.30387509,3.49519467 C8.18218067,2.49461906 7.77590629,1.67708858 6.71623026,1.56303901 Z" id="Combined-Shape-5655" fill="#C13118"></path></g></g></g></g></svg>