<svg role="img" id="sun-icon" aria-hidden="true" focusable="false" viewBox="0 0 28 28" xmlns="http://www.w3.org/2000/svg"><path d="M18.709 1.908c.211.113.287.367.184.596a297.25 297.25 0 0 0-2.868 6.653.56.56 0 0 1-.437.322c.072.024.144.051.215.08l.047.023c.864.45 1.5 1.216 2.161 2.38.566.996.853 1.725.914 2.536.167 2.236-1.287 4.124-3.354 4.863a5.171 5.171 0 0 1-1.746.308c-.166 0-.329-.008-.49-.025a.361.361 0 0 1 .028.305l-2.115 5.939a7.481 7.481 0 0 0-.107.327l-.05.162c-.218.724-.34 1.037-.577 1.377-.114.162-.37.246-.597.246a.532.532 0 0 1-.292-.075.381.381 0 0 1-.167-.24.389.389 0 0 1 .066-.3c.198-.283.311-.59.52-1.304.095-.328.137-.462.193-.622l2.02-5.667a.465.465 0 0 1 .234-.255l.09-.04-.19-.058a4.008 4.008 0 0 1-1.853-1.307.433.433 0 0 1-.107.103c-.473.33-.78.665-1.402 1.455L9 19.726a6.5 6.5 0 0 1-.482.515l-.037.038c-.112.113-.181.184-.25.257-.254.27-.404.475-.467.656-.076.218-.358.329-.637.329a.644.644 0 0 1-.165-.02.391.391 0 0 1-.246-.178.322.322 0 0 1-.025-.262c.128-.368.356-.653.854-1.15l.058-.06c.269-.267.375-.38.482-.516.651-.826 1.044-1.243 1.606-1.635a.85.85 0 0 1 .36-.108l.06-.005.056-.001-.086-.15c-1.051-1.972-.766-4.784.694-6.528C11.87 9.6 13.58 9.01 15.135 9.35a.456.456 0 0 1-.09-.511c.927-2.226 1.894-4.47 2.875-6.67.125-.282.526-.4.789-.262zM15.77 19.439c.146.008.27.051.357.13.086.075.13.18.119.287-.026.288-.006.583.055.915l.04.197c.043.198.101.414.208.79l.052.18c.05.177.074.323.118.658l.003.018c.074.582.136.83.299 1.047.14.185.056.42-.212.542a1.122 1.122 0 0 1-.441.094c-.223 0-.375-.077-.462-.193-.194-.258-.25-.469-.3-.913l-.012-.094a3.133 3.133 0 0 0-.023-.162 8.18 8.18 0 0 0-.225-.896l-.02-.07c-.269-.932-.364-1.48-.307-2.121l.01-.05a.402.402 0 0 1 .17-.22c.148-.099.382-.15.57-.139zm3.917-2.619c.663.72 1.32 1.415 1.95 2.067.13.134.241.258.47.518.6.683.876.958 1.222 1.157.119.069.189.167.22.278.03.11.02.228-.03.333a.662.662 0 0 1-.575.348.493.493 0 0 1-.246-.064c-.447-.258-.812-.61-1.43-1.317l-.1-.114c-.275-.315-.37-.422-.502-.558-.582-.604-1.181-1.24-1.83-1.945a.477.477 0 0 1-.117-.436.567.567 0 0 1 .403-.398c.215-.064.428-.017.565.131zm-5.627-6.699c-.563 0-1.104.174-1.608.517-1.073.728-1.827 2.159-1.915 3.64-.065 1.1.156 2.128.621 2.894.623 1.026 1.813 1.638 3.123 1.599 1.16-.035 2.265-.669 2.953-1.696a3.756 3.756 0 0 0 .498-3.164c-.446-1.505-1.443-2.983-2.531-3.558a3.037 3.037 0 0 0-1.14-.232zm6.43 4.726a31.737 31.737 0 0 0 6.424 2.035c.253.052.387.259.348.476-.05.268-.389.46-.66.46l-.08-.008a32.887 32.887 0 0 1-6.638-2.103.402.402 0 0 1-.221-.527c.056-.142.181-.237.333-.302.167-.071.339-.1.495-.03zM8.366 14.82a.452.452 0 0 1 .288.096.282.282 0 0 1 .103.229c-.01.264-.417.404-.673.404h-.01a29.53 29.53 0 0 0-3.47.113c-.277.026-.52.06-1 .132-.862.13-1.256.174-1.751.174-.13 0-.248-.004-.357-.011a.465.465 0 0 1-.26-.09.286.286 0 0 1-.114-.255c.01-.089.062-.172.163-.237.137-.088.41-.16.545-.145.438.03.913-.004 1.573-.095.134-.018.257-.036.474-.068l.063-.01.085-.013c.307-.045.491-.071.688-.095.199-.025.38-.044.551-.057.978-.073 2.021-.097 3.102-.072zM25.26 8.44a.42.42 0 0 1 .15.419c-.038.177-.176.314-.373.376-.692.218-1.246.432-2.447.928-1.568.646-2.291.915-3.225 1.155a.64.64 0 0 1-.164.021.514.514 0 0 1-.35-.128.418.418 0 0 1-.127-.429c.048-.171.193-.297.388-.347.835-.215 1.59-.49 2.867-1.015l.079-.033.107-.044.079-.032.228-.094c1.012-.416 1.615-.647 2.311-.86l-.034.005a.542.542 0 0 1 .511.078zM4.699 6.52c.843.411 1.5.952 2.56 2.004l.097.096.096.096c.961.96 1.419 1.37 2.037 1.768a.41.41 0 0 1 .193.354c0 .143-.07.286-.237.389a.716.716 0 0 1-.362.11.42.42 0 0 1-.234-.065c-.604-.39-1.122-.842-1.905-1.617l-.122-.122-.117-.116c-1.194-1.19-1.768-1.677-2.58-2.073a.392.392 0 0 1-.226-.322.427.427 0 0 1 .175-.385c.175-.138.434-.211.625-.117zM13.004.006a.363.363 0 0 1 .28.234c.195.544.313 1.125.384 1.82.036.347.055.623.088 1.241.02.363.033.598.051.836a38.87 38.87 0 0 0 .497 3.84c.055.309-.237.509-.587.574a.637.637 0 0 1-.107.01c-.189 0-.339-.113-.368-.288a39.442 39.442 0 0 1-.527-4.208l-.03-.512-.001-.04c-.079-1.456-.161-2.108-.433-2.866L12.25.64a.378.378 0 0 1 .085-.385c.14-.155.467-.284.67-.25z" fill="#00A3A3" fill-rule="evenodd"></path></svg>