<svg role="img" id="show-less-more-svg" aria-labelledby="show-less-more" xmlns="http://www.w3.org/2000/svg" viewBox="0 0 16 16" aria-hidden="true"><title id="show-less-more">Show less</title><path fill="#00A3A3" fill-rule="evenodd" d="M6.248 13.444c.048.072.143.157.326.156.065-.001.135-.012.21-.033.393-.109.87-.463.99-.652 2.732-4.3 3.96-6.146 7.247-10.057.12-.142.161-.248.128-.334-.017-.041-.057-.096-.163-.113-.316-.052-1.372.08-1.59.339-2.631 3.129-3.335 4.185-5.7 7.71l-.602.863-.687-1.011-.314-.443C4.4 7.408 2.627 4.97.82 2.62c-.058-.075-.178-.16-.418-.13-.45.055-1.067.463-1.21.795-.061.143-.023.239.02.294 2.456 3.197 4.823 6.516 7.036 9.865"></path></svg>